<svg width="425" height="107" viewBox="0 0 425 107" fill="none" xmlns="http://www.w3.org/2000/svg">
<rect width="425" height="107" rx="20" fill="#F7F4F3"/>
<path d="M70.6667 11C47.6667 11 29 29.6667 29 52.6667C29 75.6667 47.6667 94.3333 70.6667 94.3333C93.6667 94.3333 112.333 75.6667 112.333 52.6667C112.333 29.6667 93.6667 11 70.6667 11ZM91.5 56.8333H74.8333V73.5H66.5V56.8333H49.8333V48.5H66.5V31.8333H74.8333V48.5H91.5V56.8333Z" fill="#1B2845"/>
<path d="M134.048 33.4H141.2L146.672 67H141.392L140.432 60.328V60.424H134.432L133.472 67H128.576L134.048 33.4ZM139.808 55.864L137.456 39.256H137.36L135.056 55.864H139.808ZM156.628 67.48C154.068 67.48 152.116 66.76 150.772 65.32C149.428 63.848 148.756 61.752 148.756 59.032V41.368C148.756 38.648 149.428 36.568 150.772 35.128C152.116 33.656 154.068 32.92 156.628 32.92C159.188 32.92 161.14 33.656 162.484 35.128C163.828 36.568 164.5 38.648 164.5 41.368V44.248H159.508V41.032C159.508 38.824 158.596 37.72 156.772 37.72C154.948 37.72 154.036 38.824 154.036 41.032V59.416C154.036 61.592 154.948 62.68 156.772 62.68C158.596 62.68 159.508 61.592 159.508 59.416V52.84H156.868V48.04H164.5V59.032C164.5 61.752 163.828 63.848 162.484 65.32C161.14 66.76 159.188 67.48 156.628 67.48ZM167.89 33.4H182.29V38.2H173.17V47.08H180.418V51.88H173.17V62.2H182.29V67H167.89V33.4ZM185.327 33.4H191.951L197.087 53.512H197.183V33.4H201.887V67H196.463L190.127 42.472H190.031V67H185.327V33.4ZM205.812 33.4H213.876C216.5 33.4 218.468 34.104 219.78 35.512C221.092 36.92 221.748 38.984 221.748 41.704V58.696C221.748 61.416 221.092 63.48 219.78 64.888C218.468 66.296 216.5 67 213.876 67H205.812V33.4ZM213.78 62.2C214.644 62.2 215.3 61.944 215.748 61.432C216.228 60.92 216.468 60.088 216.468 58.936V41.464C216.468 40.312 216.228 39.48 215.748 38.968C215.3 38.456 214.644 38.2 213.78 38.2H211.092V62.2H213.78ZM229.298 33.4H236.45L241.922 67H236.642L235.682 60.328V60.424H229.682L228.722 67H223.826L229.298 33.4ZM235.058 55.864L232.706 39.256H232.61L230.306 55.864H235.058ZM244.484 33.4H252.308C255.028 33.4 257.012 34.04 258.26 35.32C259.508 36.568 260.132 38.504 260.132 41.128V43.192C260.132 46.68 258.98 48.888 256.676 49.816V49.912C257.956 50.296 258.852 51.08 259.364 52.264C259.908 53.448 260.18 55.032 260.18 57.016V62.92C260.18 63.88 260.212 64.664 260.276 65.272C260.34 65.848 260.5 66.424 260.756 67H255.38C255.188 66.456 255.06 65.944 254.996 65.464C254.932 64.984 254.9 64.12 254.9 62.872V56.728C254.9 55.192 254.644 54.12 254.132 53.512C253.652 52.904 252.804 52.6 251.588 52.6H249.764V67H244.484V33.4ZM251.684 47.8C252.74 47.8 253.524 47.528 254.036 46.984C254.58 46.44 254.852 45.528 254.852 44.248V41.656C254.852 40.44 254.628 39.56 254.18 39.016C253.764 38.472 253.092 38.2 252.164 38.2H249.764V47.8H251.684ZM271.531 33.4H276.811V47.08H282.475V33.4H287.755V67H282.475V51.88H276.811V67H271.531V33.4ZM299.319 67.48C296.727 67.48 294.743 66.744 293.367 65.272C291.991 63.8 291.303 61.72 291.303 59.032V41.368C291.303 38.68 291.991 36.6 293.367 35.128C294.743 33.656 296.727 32.92 299.319 32.92C301.911 32.92 303.895 33.656 305.271 35.128C306.647 36.6 307.335 38.68 307.335 41.368V59.032C307.335 61.72 306.647 63.8 305.271 65.272C303.895 66.744 301.911 67.48 299.319 67.48ZM299.319 62.68C301.143 62.68 302.055 61.576 302.055 59.368V41.032C302.055 38.824 301.143 37.72 299.319 37.72C297.495 37.72 296.583 38.824 296.583 41.032V59.368C296.583 61.576 297.495 62.68 299.319 62.68ZM310.906 33.4H318.73C321.45 33.4 323.434 34.04 324.682 35.32C325.93 36.568 326.554 38.504 326.554 41.128V43.192C326.554 46.68 325.402 48.888 323.098 49.816V49.912C324.378 50.296 325.274 51.08 325.786 52.264C326.33 53.448 326.602 55.032 326.602 57.016V62.92C326.602 63.88 326.634 64.664 326.698 65.272C326.762 65.848 326.922 66.424 327.178 67H321.802C321.61 66.456 321.482 65.944 321.418 65.464C321.354 64.984 321.322 64.12 321.322 62.872V56.728C321.322 55.192 321.066 54.12 320.554 53.512C320.074 52.904 319.226 52.6 318.01 52.6H316.186V67H310.906V33.4ZM318.106 47.8C319.162 47.8 319.946 47.528 320.458 46.984C321.002 46.44 321.273 45.528 321.273 44.248V41.656C321.273 40.44 321.05 39.56 320.602 39.016C320.186 38.472 319.514 38.2 318.586 38.2H316.186V47.8H318.106ZM334.345 33.4H341.497L346.969 67H341.689L340.729 60.328V60.424H334.729L333.769 67H328.873L334.345 33.4ZM340.105 55.864L337.753 39.256H337.657L335.353 55.864H340.105ZM338.425 25.624H344.185L339.049 31.144H335.065L338.425 25.624ZM349.531 33.4H357.355C360.075 33.4 362.059 34.04 363.307 35.32C364.555 36.568 365.179 38.504 365.179 41.128V43.192C365.179 46.68 364.027 48.888 361.723 49.816V49.912C363.003 50.296 363.899 51.08 364.411 52.264C364.955 53.448 365.227 55.032 365.227 57.016V62.92C365.227 63.88 365.259 64.664 365.323 65.272C365.387 65.848 365.547 66.424 365.803 67H360.427C360.235 66.456 360.107 65.944 360.043 65.464C359.979 64.984 359.947 64.12 359.947 62.872V56.728C359.947 55.192 359.691 54.12 359.179 53.512C358.699 52.904 357.851 52.6 356.635 52.6H354.811V67H349.531V33.4ZM356.731 47.8C357.787 47.8 358.571 47.528 359.083 46.984C359.627 46.44 359.898 45.528 359.898 44.248V41.656C359.898 40.44 359.675 39.56 359.227 39.016C358.811 38.472 358.139 38.2 357.211 38.2H354.811V47.8H356.731ZM368.89 33.4H374.17V67H368.89V33.4ZM385.756 67.48C383.164 67.48 381.18 66.744 379.804 65.272C378.428 63.8 377.74 61.72 377.74 59.032V41.368C377.74 38.68 378.428 36.6 379.804 35.128C381.18 33.656 383.164 32.92 385.756 32.92C388.348 32.92 390.332 33.656 391.708 35.128C393.084 36.6 393.772 38.68 393.772 41.368V59.032C393.772 61.72 393.084 63.8 391.708 65.272C390.332 66.744 388.348 67.48 385.756 67.48ZM385.756 62.68C387.58 62.68 388.492 61.576 388.492 59.368V41.032C388.492 38.824 387.58 37.72 385.756 37.72C383.932 37.72 383.02 38.824 383.02 41.032V59.368C383.02 61.576 383.932 62.68 385.756 62.68Z" fill="#1B2845"/>
</svg>
