<svg width="102" height="301" viewBox="0 0 102 301" fill="none" xmlns="http://www.w3.org/2000/svg">
<path d="M51.0006 0C47.4358 0 43.9889 0.490314 40.7075 1.38414C40.6236 1.40349 40.5351 1.41581 40.4535 1.43868C23.9752 6.04154 11.8875 21.1656 11.8875 39.1125V41.6738H90.1113V39.1113C90.1119 17.5111 72.6008 0 51.0006 0Z" fill="#65AFFF"/>
<path d="M11.8884 259.18V261.176C11.8884 279.123 23.9762 294.247 40.4539 298.85C40.6035 298.892 40.7507 298.923 40.8979 298.954C44.1225 299.816 47.5042 300.289 50.9998 300.289C72.6012 300.289 90.1117 282.778 90.1117 261.177V259.18H11.8884V259.18Z" fill="#65AFFF"/>
<path d="M90.1118 235.771H11.8879V219.812L13.2298 217.335L13.2867 202.125L11.8879 199.754V184.978L13.2298 181.558L13.4598 167.615L11.8879 164.922V150.145L13.6328 147.393L13.7483 132.183L11.8879 130.087V115.311L13.7483 112.711L13.4023 98.1056L11.8879 95.2541V80.4766L13.4891 78.0995L11.8879 64.5748H90.1118V65.7003L88.6444 68.5214L88.4714 83.6156L90.1118 85.7633V100.534L88.4139 103.435L88.299 118.702L90.1118 120.597V135.367L88.2415 139.385L88.1834 153.096L90.1118 155.431V170.201L88.5869 173.376V187.434L90.1118 190.265V204.993L88.5869 207.656L88.299 222.75L90.1118 225.057V235.771Z" fill="#E6E7E8"/>
<path d="M70.8416 235.771H90.1116V225.057L88.2987 222.75L88.5867 207.656L90.1116 204.993V190.265L88.5867 187.434V173.376L90.1116 170.201V155.431L88.1832 153.096L88.2412 139.385L90.1116 135.367V120.597L88.2987 118.702L88.4137 103.435L90.1116 100.534V85.7633L88.4712 83.6156L88.6442 68.5214L90.1116 65.7003V64.5748H70.8416V235.771Z" fill="#D1D3D4"/>
<path d="M51.0007 0C47.3462 0 43.8125 0.512015 40.4578 1.44983C56.9355 6.05327 69.0268 21.1656 69.0268 39.1125V41.6749H90.1132V39.1125C90.112 17.5111 72.6009 0 51.0007 0Z" fill="#528DCE"/>
<path d="M11.8879 63.336V80.4764L57.5775 63.2192L11.8879 63.336Z" fill="#65AFFF"/>
<path d="M69.026 259.18V261.176C69.026 279.122 56.9342 294.235 40.457 298.839C43.813 299.776 47.3455 300.289 51 300.289C72.6014 300.289 90.1119 282.778 90.1119 261.177V259.18H69.0255V259.18H69.026Z" fill="#528DCE"/>
<path d="M98.6839 65.7H3.31549C1.48385 65.7 0 64.2155 0 62.3845V43.4388C0 41.6071 1.48443 40.1233 3.31549 40.1233H98.6845C100.516 40.1233 102 41.6077 102 43.4388V62.3845C102.001 64.2155 100.516 65.7 98.6839 65.7Z" fill="#D1D3D4"/>
<path d="M90.1118 204.993L11.8879 234.547V254.604L90.1118 225.056V204.993Z" fill="#274060"/>
<path d="M90.1121 65.6996L11.8882 95.2539V115.31L90.1121 85.7632V65.6996Z" fill="#274060"/>
<path d="M98.6839 260.166H3.31549C1.48385 260.166 0 258.682 0 256.851V237.905C0 236.073 1.48443 234.589 3.31549 234.589H98.6845C100.516 234.589 102 236.074 102 237.905V256.851C102.001 258.681 100.516 260.166 98.6839 260.166Z" fill="#D1D3D4"/>
<path d="M98.6843 40.1226H77.1609C78.9925 40.1226 80.4764 41.607 80.4764 43.438V62.3837C80.4764 64.2154 78.9919 65.6992 77.1609 65.6992H98.6843C100.516 65.6992 102 64.2148 102 62.3837V43.4386C102.001 41.607 100.516 40.1226 98.6843 40.1226Z" fill="#BCBEC0"/>
<path d="M98.6843 234.588H77.1609C78.9925 234.588 80.4764 236.073 80.4764 237.904V256.85C80.4764 258.681 78.9919 260.165 77.1609 260.165H98.6843C100.516 260.165 102 258.681 102 256.85V237.904C102.001 236.073 100.516 234.588 98.6843 234.588Z" fill="#BCBEC0"/>
<path d="M90.1118 135.367L11.8879 164.921V184.977L90.1118 155.431V135.367Z" fill="#274060"/>
<path d="M90.1121 100.534L11.8882 130.087V150.145L90.1121 120.597V100.534Z" fill="#65AFFF"/>
<path d="M90.1118 170.201L11.8879 199.754V219.811L90.1118 190.265V170.201Z" fill="#65AFFF"/>
</svg>
