<?xml version="1.0" encoding="iso-8859-1"?>
<!-- Generator: Adobe Illustrator 19.0.0, SVG Export Plug-In . SVG Version: 6.00 Build 0)  -->
<svg version="1.1" id="Capa_1" xmlns="http://www.w3.org/2000/svg" xmlns:xlink="http://www.w3.org/1999/xlink" x="0px" y="0px"
	 viewBox="0 0 512 512" style="enable-background:new 0 0 512 512;" xml:space="preserve">
<rect x="442.078" y="230.022" style="fill:#70BBEF;" width="51.77" height="136.877"/>
<rect x="442.078" y="230.022" style="fill:#4CAEE5;" width="25.885" height="136.877"/>
<path style="fill:#C0C0C0;" d="M467.964,491.91c-4.267,0-7.727-3.459-7.727-7.727v-91.526c0-4.268,3.46-7.727,7.727-7.727
	c4.267,0,7.727,3.459,7.727,7.727v91.527C475.691,488.451,472.232,491.91,467.964,491.91z"/>
<path style="fill:#FCE3BB;" d="M331.551,256.429c-11.431,30.13-52.703,30.203-64.161,0c-11.431,30.13-52.702,30.203-64.162,0
	c-11.435,30.14-52.707,30.194-64.161,0c-11.431,30.129-52.702,30.204-64.162,0c-5.998,15.808-22.035,25.301-38.576,22.028v208.817
	h333.799V278.457C353.604,281.727,337.554,272.254,331.551,256.429z"/>
<path style="fill:#F7CF9C;" d="M36.328,278.457v208.817h25.756V272.981C54.547,278.266,45.357,280.244,36.328,278.457z"/>
<polygon style="fill:#D83D3D;" points="442.079,252.995 493.849,304.765 493.849,264.332 460.763,231.246 442.079,231.246 "/>
<polygon style="fill:#C43131;" points="442.08,252.995 467.964,278.88 467.964,238.447 460.763,231.246 442.08,231.246 "/>
<polygon style="fill:#D83D3D;" points="442.079,333.457 473.462,364.84 493.849,364.84 493.849,344.795 442.079,293.026 "/>
<polygon style="fill:#C43131;" points="442.08,333.458 467.964,359.342 467.964,318.91 442.08,293.026 "/>
<circle style="fill:#F9B938;" cx="467.965" cy="182.339" r="21.096"/>
<path style="fill:#EAA224;" d="M467.974,161.258c-3.588-0.005-7.225,0.886-10.557,2.81c-10.089,5.825-13.546,18.726-7.721,28.815
	c5.825,10.089,18.726,13.546,28.815,7.721c3.331-1.924,5.922-4.627,7.711-7.737C469.998,192.843,459.867,175.347,467.974,161.258z"
	/>
<path style="fill:#70BBEF;" d="M197.782,427.685H80.758c-5.762,0-10.432-4.67-10.432-10.432v-78.768
	c0-5.762,4.67-10.432,10.432-10.432h117.025c5.762,0,10.432,4.67,10.432,10.432v78.768
	C208.214,423.014,203.544,427.685,197.782,427.685z"/>
<path style="fill:#4CAEE5;" d="M96.082,417.254v-78.768c0-5.762,4.67-10.432,10.432-10.432H80.758
	c-5.762,0-10.432,4.67-10.432,10.432v78.768c0,5.762,4.67,10.432,10.432,10.432h25.756
	C100.753,427.685,96.082,423.014,96.082,417.254z"/>
<path style="fill:#7F7369;" d="M332.777,484.183h-89.205V333.615c0-3.072,2.491-5.561,5.562-5.561h77.361
	c3.469,0,6.282,2.813,6.282,6.282V484.183z"/>
<path style="fill:#706359;" d="M274.891,328.054h-25.756c-3.072,0-5.562,2.49-5.562,5.561v150.567h25.756V333.615
	C269.328,330.544,271.819,328.054,274.891,328.054z"/>
<rect x="243.575" y="355.535" style="fill:#4CAEE5;" width="89.204" height="27.483"/>
<rect x="243.575" y="355.535" style="fill:#3BA0CC;" width="25.756" height="27.483"/>
<path style="fill:#70BBEF;" d="M326.495,328.054h-77.361c-3.072,0-5.562,2.491-5.562,5.563v21.921h89.205v-21.202
	C332.777,330.866,329.964,328.054,326.495,328.054z"/>
<path style="fill:#4CAEE5;" d="M269.328,333.615c0-3.072,2.491-5.561,5.563-5.561h-25.756c-1.852,0-3.483,0.915-4.493,2.309
	c-0.665,0.916-1.068,2.035-1.068,3.254v21.921h25.756v-21.922H269.328z"/>
<path style="fill:#D83D3D;" d="M373.018,145.016c-1.696-7.029-7.985-11.981-15.216-11.981h-69.628c-8.876,0-253.189,0-240.285,0
	c-6.783,0-12.682,4.645-14.273,11.239L8.351,248.979c0,19.038,15.433,34.472,34.472,34.472c14.585,0,27.045-9.062,32.081-21.86
	c11.437,29.066,52.709,29.106,64.161,0c11.452,29.101,52.722,29.075,64.162,0c11.489,29.2,52.797,28.881,64.162,0
	c3.147,7.998,9.194,14.538,16.849,18.317c17.838,8.81,39.851,0.649,47.314-18.318c5.035,12.797,17.496,21.86,32.081,21.86
	c19.038,0,34.472-15.433,34.472-34.472L373.018,145.016z"/>
<path style="fill:#C43131;" d="M34.107,248.979l25.265-104.705c1.59-6.593,7.491-11.239,14.273-11.239H47.889
	c-6.783,0-12.682,4.645-14.273,11.239L8.351,248.979c0,24.507,24.856,41.065,47.361,31.98
	C43.049,275.859,34.107,263.467,34.107,248.979z"/>
<g>
	<path style="fill:#70BBEF;" d="M263.268,133.035h-60.041V261.59c11.489,29.2,52.797,28.881,64.162,0
		C266.947,247.819,263.752,148.114,263.268,133.035z"/>
	<path style="fill:#70BBEF;" d="M139.065,261.591c0,0.001,0.001,0.001,0.001,0.002L139.065,261.591l4.121-128.556
		c-12.187,0-45.216,0-56.95,0L74.903,261.59C86.341,290.655,127.613,290.699,139.065,261.591z"/>
	<path style="fill:#70BBEF;" d="M363.631,283.451c19.038,0,34.472-15.433,34.472-34.472l-25.086-103.963
		c-1.696-7.029-7.985-11.981-15.216-11.981h-37.584l11.333,128.555C336.586,274.389,349.046,283.451,363.631,283.451z"/>
</g>
<g>
	<path style="fill:#C0C0C0;" d="M291.571,139.732c-4.267,0-7.727-3.459-7.727-7.727V77.51c0-4.268,3.46-7.727,7.727-7.727
		c4.267,0,7.727,3.459,7.727,7.727v54.495C299.298,136.273,295.838,139.732,291.571,139.732z"/>
	<path style="fill:#C0C0C0;" d="M114.884,139.732c-4.267,0-7.727-3.459-7.727-7.727V77.51c0-4.268,3.46-7.727,7.727-7.727
		c4.267,0,7.727,3.459,7.727,7.727v54.495C122.611,136.273,119.151,139.732,114.884,139.732z"/>
</g>
<path style="fill:#7EBC7E;" d="M498.091,484.183c-4.251,0-478.073,0-484.183,0C6.227,484.183,0,490.409,0,498.091
	C0,505.773,6.227,512,13.909,512c6.324,0,479.485,0,484.183,0c7.681,0,13.909-6.227,13.909-13.909
	C512,490.409,505.773,484.183,498.091,484.183z"/>
<path style="fill:#65A865;" d="M49.206,498.091c0-7.682,6.227-13.909,13.909-13.909H13.909C6.227,484.183,0,490.409,0,498.091
	C0,505.772,6.227,512,13.909,512h49.206C55.433,511.999,49.206,505.772,49.206,498.091z"/>
<path style="fill:#996123;" d="M331.576,12.847c-0.39-4.348-6.149-5.68-8.35-1.91c-4.907,8.401-13.614,17.963-27.824,17.963
	c-24.584,0-39.631-52.02-87.603-16.475c-2.719,2.014-6.421,2.014-9.138,0C150.685-23.12,135.639,28.9,111.056,28.9
	c-14.212,0-22.918-9.562-27.825-17.964c-2.2-3.766-7.959-2.438-8.349,1.907c-3.249,36.152,24.522,72.743,68.435,72.743
	c27.743,0,43.173-10.739,51.397-20.245c4.485-5.184,12.547-5.184,17.033,0c8.223,9.507,23.653,20.245,51.396,20.245
	C307.052,85.587,334.823,48.997,331.576,12.847z"/>
<path style="fill:#89521A;" d="M329.091,9.219C312.52,65.273,239.894,69.812,211.744,37.27c-4.485-5.185-12.546-5.185-17.033,0
	C166.755,69.588,94.021,65.562,77.365,9.22c-1.305,0.638-2.329,1.884-2.485,3.624c-3.249,36.152,24.522,72.743,68.435,72.743
	c27.743,0,43.173-10.739,51.396-20.245c4.485-5.184,12.547-5.184,17.033,0c8.223,9.507,23.653,20.245,51.396,20.245
	c43.913,0,71.682-36.59,68.436-72.739C331.42,11.105,330.396,9.858,329.091,9.219z"/>
<g>
	<path style="fill:#E6E7E8;" d="M512,378.748c0-7.682-6.227-13.909-13.909-13.909h-60.253c-7.681,0-13.909,6.227-13.909,13.909
		c0,7.681,6.227,13.909,13.909,13.909h60.253C505.773,392.657,512,386.43,512,378.748z"/>
	<path style="fill:#E6E7E8;" d="M512,217.338c0-7.681-6.227-13.909-13.909-13.909h-60.253c-7.681,0-13.909,6.227-13.909,13.909
		c0,7.682,6.227,13.909,13.909,13.909h60.253C505.773,231.246,512,225.019,512,217.338z"/>
</g>
<g>
	<path style="fill:#D9DADB;" d="M455.023,378.748c0-7.682,6.227-13.909,13.909-13.909h-31.092c-7.681,0-13.909,6.227-13.909,13.909
		c0,7.681,6.227,13.909,13.909,13.909h31.092C461.249,392.657,455.023,386.43,455.023,378.748z"/>
	<path style="fill:#D9DADB;" d="M455.023,217.338c0-7.681,6.227-13.909,13.909-13.909h-31.092c-7.681,0-13.909,6.227-13.909,13.909
		c0,7.682,6.227,13.909,13.909,13.909h31.092C461.249,231.246,455.023,225.019,455.023,217.338z"/>
</g>
<g>
</g>
<g>
</g>
<g>
</g>
<g>
</g>
<g>
</g>
<g>
</g>
<g>
</g>
<g>
</g>
<g>
</g>
<g>
</g>
<g>
</g>
<g>
</g>
<g>
</g>
<g>
</g>
<g>
</g>
</svg>
