<svg width="61" height="61" viewBox="0 0 61 61" fill="none" xmlns="http://www.w3.org/2000/svg">
<g clip-path="url(#clip0)">
<path d="M53.4105 60.3467H7.06668C3.57641 60.3467 0.74707 57.5173 0.74707 54.027V7.68321C0.74707 4.19294 3.57641 1.3636 7.06668 1.3636H53.4105C56.9008 1.3636 59.7301 4.19294 59.7301 7.68321V54.027C59.7301 57.5173 56.9008 60.3467 53.4105 60.3467ZM26.4618 47.4363L50.687 23.2112C51.5096 22.3886 51.5096 21.0547 50.687 20.2321L47.708 17.2531C46.8854 16.4305 45.5515 16.4303 44.7288 17.2531L24.9723 37.0095L15.7484 27.7856C14.9258 26.963 13.5919 26.963 12.7692 27.7856L9.79017 30.7647C8.96757 31.5873 8.96757 32.9211 9.79017 33.7437L23.4827 47.4362C24.3054 48.2591 25.6391 48.2591 26.4618 47.4363V47.4363Z" fill="white"/>
</g>
<defs>
<clipPath id="clip0">
<rect x="0.15625" y="0.745911" width="60" height="60" rx="9" fill="white"/>
</clipPath>
</defs>
</svg>
