<svg width="100" height="100" viewBox="0 0 100 100" fill="none" xmlns="http://www.w3.org/2000/svg">
<path d="M45.8333 33.3333V54.1667L63.5417 64.6667L66.75 59.3333L52.0833 50.625V33.3333H45.8333ZM87.5 41.6667V12.5L76.5 23.5C69.75 16.7083 60.375 12.5 50 12.5C29.2917 12.5 12.5 29.2917 12.5 50C12.5 70.7083 29.2917 87.5 50 87.5C70.7083 87.5 87.5 70.7083 87.5 50H79.1667C79.1667 66.0833 66.0833 79.1667 50 79.1667C33.9167 79.1667 20.8333 66.0833 20.8333 50C20.8333 33.9167 33.9167 20.8333 50 20.8333C58.0417 20.8333 65.3333 24.125 70.625 29.375L58.3333 41.6667H87.5Z" fill="#F7F4F3"/>
</svg>
