<svg width="100" height="100" viewBox="0 0 100 100" fill="none" xmlns="http://www.w3.org/2000/svg">
<path d="M79.1667 12.5H75V4.16663H66.6667V12.5H33.3333V4.16663H25V12.5H20.8333C16.25 12.5 12.5 16.25 12.5 20.8333V79.1666C12.5 83.75 16.25 87.5 20.8333 87.5H79.1667C83.75 87.5 87.5 83.75 87.5 79.1666V20.8333C87.5 16.25 83.75 12.5 79.1667 12.5ZM79.1667 79.1666H20.8333V37.5H79.1667V79.1666ZM20.8333 29.1666V20.8333H79.1667V29.1666H20.8333ZM44 72.75L68.7083 48.0416L64.2917 43.625L44 63.9166L35.2083 55.125L30.7917 59.5416L44 72.75Z" fill="#F7F4F3"/>
</svg>
