<svg width="100" height="100" viewBox="0 0 100 100" fill="none" xmlns="http://www.w3.org/2000/svg">
<g clip-path="url(#clip0)">
<path d="M50 12.5C56.875 12.5 62.5 18.125 62.5 25C62.5 31.875 56.875 37.5 50 37.5C43.125 37.5 37.5 31.875 37.5 25C37.5 18.125 43.125 12.5 50 12.5ZM50 75C66.875 75 86.25 83.0625 87.5 87.5H12.5C13.9375 83 33.1875 75 50 75ZM50 0C36.1875 0 25 11.1875 25 25C25 38.8125 36.1875 50 50 50C63.8125 50 75 38.8125 75 25C75 11.1875 63.8125 0 50 0ZM50 62.5C33.3125 62.5 0 70.875 0 87.5V100H100V87.5C100 70.875 66.6875 62.5 50 62.5Z" fill="#1B2845"/>
</g>
<defs>
<clipPath id="clip0">
<rect width="100" height="100" fill="white"/>
</clipPath>
</defs>
</svg>
