<svg width="208" height="171" viewBox="0 0 208 171" fill="none" xmlns="http://www.w3.org/2000/svg">
<path d="M1.968 126.4H9.936C12.656 126.4 14.64 127.04 15.888 128.32C17.136 129.568 17.76 131.504 17.76 134.128V135.472C17.76 137.2 17.472 138.608 16.896 139.696C16.352 140.784 15.504 141.568 14.352 142.048V142.144C16.976 143.04 18.288 145.376 18.288 149.152V152.032C18.288 154.624 17.6 156.608 16.224 157.984C14.88 159.328 12.896 160 10.272 160H1.968V126.4ZM9.312 140.08C10.368 140.08 11.152 139.808 11.664 139.264C12.208 138.72 12.48 137.808 12.48 136.528V134.656C12.48 133.44 12.256 132.56 11.808 132.016C11.392 131.472 10.72 131.2 9.792 131.2H7.248V140.08H9.312ZM10.272 155.2C11.2 155.2 11.888 154.96 12.336 154.48C12.784 153.968 13.008 153.104 13.008 151.888V148.96C13.008 147.424 12.736 146.368 12.192 145.792C11.68 145.184 10.816 144.88 9.6 144.88H7.248V155.2H10.272ZM25.4543 126.4H32.6063L38.0783 160H32.7983L31.8383 153.328V153.424H25.8383L24.8783 160H19.9823L25.4543 126.4ZM31.2143 148.864L28.8623 132.256H28.7663L26.4622 148.864H31.2143ZM40.6399 126.4H48.4639C51.1839 126.4 53.1679 127.04 54.4159 128.32C55.6639 129.568 56.2879 131.504 56.2879 134.128V136.192C56.2879 139.68 55.1359 141.888 52.8319 142.816V142.912C54.1119 143.296 55.0079 144.08 55.5199 145.264C56.0639 146.448 56.3359 148.032 56.3359 150.016V155.92C56.3359 156.88 56.3679 157.664 56.4319 158.272C56.4959 158.848 56.6559 159.424 56.9119 160H51.5359C51.3439 159.456 51.2159 158.944 51.1519 158.464C51.0879 157.984 51.0559 157.12 51.0559 155.872V149.728C51.0559 148.192 50.7999 147.12 50.2879 146.512C49.8079 145.904 48.9599 145.6 47.7439 145.6H45.9199V160H40.6399V126.4ZM47.8399 140.8C48.8959 140.8 49.6799 140.528 50.1919 139.984C50.7359 139.44 51.0079 138.528 51.0079 137.248V134.656C51.0079 133.44 50.7839 132.56 50.3359 132.016C49.9199 131.472 49.2479 131.2 48.3199 131.2H45.9199V140.8H47.8399ZM59.9993 126.4H67.9673C70.6873 126.4 72.6713 127.04 73.9193 128.32C75.1673 129.568 75.7913 131.504 75.7913 134.128V135.472C75.7913 137.2 75.5033 138.608 74.9273 139.696C74.3833 140.784 73.5353 141.568 72.3833 142.048V142.144C75.0073 143.04 76.3193 145.376 76.3193 149.152V152.032C76.3193 154.624 75.6313 156.608 74.2553 157.984C72.9113 159.328 70.9273 160 68.3033 160H59.9993V126.4ZM67.3433 140.08C68.3993 140.08 69.1833 139.808 69.6953 139.264C70.2393 138.72 70.5113 137.808 70.5113 136.528V134.656C70.5113 133.44 70.2873 132.56 69.8393 132.016C69.4233 131.472 68.7513 131.2 67.8233 131.2H65.2793V140.08H67.3433ZM68.3033 155.2C69.2313 155.2 69.9193 154.96 70.3672 154.48C70.8153 153.968 71.0393 153.104 71.0393 151.888V148.96C71.0393 147.424 70.7673 146.368 70.2233 145.792C69.7113 145.184 68.8473 144.88 67.6313 144.88H65.2793V155.2H68.3033ZM79.4055 126.4H93.8055V131.2H84.6855V140.08H91.9335V144.88H84.6855V155.2H93.8055V160H79.4055V126.4ZM96.843 126.4H104.667C107.387 126.4 109.371 127.04 110.619 128.32C111.867 129.568 112.491 131.504 112.491 134.128V136.192C112.491 139.68 111.339 141.888 109.035 142.816V142.912C110.315 143.296 111.211 144.08 111.723 145.264C112.267 146.448 112.539 148.032 112.539 150.016V155.92C112.539 156.88 112.571 157.664 112.635 158.272C112.699 158.848 112.859 159.424 113.115 160H107.739C107.547 159.456 107.419 158.944 107.355 158.464C107.291 157.984 107.259 157.12 107.259 155.872V149.728C107.259 148.192 107.003 147.12 106.491 146.512C106.011 145.904 105.163 145.6 103.947 145.6H102.123V160H96.843V126.4ZM104.043 140.8C105.099 140.8 105.883 140.528 106.395 139.984C106.939 139.44 107.211 138.528 107.211 137.248V134.656C107.211 133.44 106.987 132.56 106.539 132.016C106.123 131.472 105.451 131.2 104.523 131.2H102.123V140.8H104.043ZM123.066 160.48C120.506 160.48 118.57 159.76 117.258 158.32C115.946 156.848 115.29 154.752 115.29 152.032V150.112H120.282V152.416C120.282 154.592 121.194 155.68 123.018 155.68C123.914 155.68 124.586 155.424 125.034 154.912C125.514 154.368 125.754 153.504 125.754 152.32C125.754 150.912 125.434 149.68 124.794 148.624C124.154 147.536 122.97 146.24 121.242 144.736C119.066 142.816 117.546 141.088 116.682 139.552C115.818 137.984 115.386 136.224 115.386 134.272C115.386 131.616 116.058 129.568 117.402 128.128C118.746 126.656 120.698 125.92 123.258 125.92C125.786 125.92 127.69 126.656 128.97 128.128C130.282 129.568 130.938 131.648 130.938 134.368V135.76H125.946V134.032C125.946 132.88 125.722 132.048 125.274 131.536C124.826 130.992 124.17 130.72 123.306 130.72C121.546 130.72 120.666 131.792 120.666 133.936C120.666 135.152 120.986 136.288 121.626 137.344C122.298 138.4 123.498 139.68 125.226 141.184C127.434 143.104 128.954 144.848 129.786 146.416C130.618 147.984 131.034 149.824 131.034 151.936C131.034 154.688 130.346 156.8 128.97 158.272C127.626 159.744 125.658 160.48 123.066 160.48ZM138.19 131.2H132.67V126.4H148.99V131.2H143.47V160H138.19V131.2ZM158.991 160.48C156.399 160.48 154.415 159.744 153.039 158.272C151.663 156.8 150.975 154.72 150.975 152.032V134.368C150.975 131.68 151.663 129.6 153.039 128.128C154.415 126.656 156.399 125.92 158.991 125.92C161.583 125.92 163.567 126.656 164.943 128.128C166.319 129.6 167.007 131.68 167.007 134.368V152.032C167.007 154.72 166.319 156.8 164.943 158.272C163.567 159.744 161.583 160.48 158.991 160.48ZM158.991 155.68C160.815 155.68 161.727 154.576 161.727 152.368V134.032C161.727 131.824 160.815 130.72 158.991 130.72C157.167 130.72 156.255 131.824 156.255 134.032V152.368C156.255 154.576 157.167 155.68 158.991 155.68ZM170.577 126.4H177.201L182.337 146.512H182.433V126.4H187.137V160H181.713L175.377 135.472H175.281V160H170.577V126.4ZM191.062 126.4H205.462V131.2H196.342V140.08H203.59V144.88H196.342V155.2H205.462V160H191.062V126.4Z" fill="#F7F4F3"/>
<g clip-path="url(#clip0)">
<path d="M71.5418 95.5285C78.2358 94.1321 83.6473 88.9167 85.3292 82.2379C86.4757 77.6694 85.8979 73.0785 83.7009 69.0543L95.3557 63.8995L142.694 83.6255C144.12 84.2189 145.621 84.5179 147.158 84.5179C151.046 84.5179 154.655 82.5861 156.812 79.3515L158.614 76.6478C158.991 76.0856 159.098 75.3852 158.907 74.7428C158.719 74.0959 158.255 73.565 157.638 73.2928L115.877 54.8228L157.637 36.3521C158.255 36.0799 158.719 35.5491 158.907 34.9021C159.098 34.2552 158.991 33.5548 158.614 32.9971L156.812 30.2936C154.655 27.059 151.046 25.1273 147.158 25.1273C145.621 25.1273 144.12 25.4262 142.694 26.0196L95.3516 45.7449L83.6987 40.5861C85.1487 37.9316 85.9048 35.0004 85.9048 31.98C85.9048 21.9017 77.7073 13.7059 67.6316 13.7059C57.5558 13.7059 49.3583 21.9015 49.3583 31.98C49.3583 42.0583 57.5558 50.2541 67.6316 50.2541C74.3883 50.2541 79.3281 52.4653 82.7051 54.8196C79.4292 57.1083 74.7387 59.2461 68.283 59.3823C58.1781 59.5964 49.878 67.2031 49.3829 76.6925C49.3673 77.0227 49.3583 77.3484 49.3583 77.6696C49.3583 83.0279 51.6558 88.0424 55.7491 91.5492C60.0919 95.2699 65.8493 96.7198 71.5418 95.5285ZM58.4948 31.9793C58.4948 26.9425 62.5924 22.8426 67.6316 22.8426C72.6707 22.8426 76.7683 26.9425 76.7683 31.9793C76.7683 37.0161 72.6707 41.1161 67.6316 41.1161C62.5924 41.1161 58.4948 37.0161 58.4948 31.9793ZM90.4731 54.8208C90.4731 52.3002 92.523 50.2526 95.0413 50.2526C97.5596 50.2526 99.6096 52.3004 99.6096 54.8208C99.6096 57.3415 97.5596 59.3891 95.0413 59.3891C92.523 59.3891 90.4731 57.3415 90.4731 54.8208ZM58.4948 77.6626C58.4948 72.6258 62.5924 68.5258 67.6316 68.5258C72.6707 68.5258 76.7683 72.6258 76.7683 77.6626C76.7683 82.6994 72.6707 86.7993 67.6316 86.7993C62.5924 86.7993 58.4948 82.6994 58.4948 77.6626Z" fill="#FAEB67"/>
</g>
<defs>
<clipPath id="clip0">
<rect width="109.642" height="109.642" fill="white" transform="translate(159) rotate(90)"/>
</clipPath>
</defs>
</svg>
