<svg width="425" height="107" viewBox="0 0 425 107" fill="none" xmlns="http://www.w3.org/2000/svg">
<rect width="425" height="107" rx="20" fill="#F7F4F3"/>
<path d="M70.6667 11C47.6667 11 29 29.6667 29 52.6667C29 75.6667 47.6667 94.3333 70.6667 94.3333C93.6667 94.3333 112.333 75.6667 112.333 52.6667C112.333 29.6667 93.6667 11 70.6667 11ZM91.5 56.8333H74.8333V73.5H66.5V56.8333H49.8333V48.5H66.5V31.8333H74.8333V48.5H91.5V56.8333Z" fill="#1B2845"/>
<path d="M129.968 33.4H136.592L141.728 53.512H141.824V33.4H146.528V67H141.104L134.768 42.472H134.672V67H129.968V33.4ZM158.084 67.48C155.492 67.48 153.508 66.744 152.132 65.272C150.756 63.8 150.068 61.72 150.068 59.032V41.368C150.068 38.68 150.756 36.6 152.132 35.128C153.508 33.656 155.492 32.92 158.084 32.92C160.676 32.92 162.66 33.656 164.036 35.128C165.412 36.6 166.1 38.68 166.1 41.368V59.032C166.1 61.72 165.412 63.8 164.036 65.272C162.66 66.744 160.676 67.48 158.084 67.48ZM158.084 62.68C159.908 62.68 160.82 61.576 160.82 59.368V41.032C160.82 38.824 159.908 37.72 158.084 37.72C156.26 37.72 155.348 38.824 155.348 41.032V59.368C155.348 61.576 156.26 62.68 158.084 62.68ZM168.185 33.4H173.513L176.969 59.464H177.065L180.521 33.4H185.369L180.281 67H173.273L168.185 33.4ZM195.444 67.48C192.852 67.48 190.868 66.744 189.492 65.272C188.116 63.8 187.428 61.72 187.428 59.032V41.368C187.428 38.68 188.116 36.6 189.492 35.128C190.868 33.656 192.852 32.92 195.444 32.92C198.036 32.92 200.02 33.656 201.396 35.128C202.772 36.6 203.46 38.68 203.46 41.368V59.032C203.46 61.72 202.772 63.8 201.396 65.272C200.02 66.744 198.036 67.48 195.444 67.48ZM195.444 62.68C197.268 62.68 198.18 61.576 198.18 59.368V41.032C198.18 38.824 197.268 37.72 195.444 37.72C193.62 37.72 192.708 38.824 192.708 41.032V59.368C192.708 61.576 193.62 62.68 195.444 62.68ZM214.718 33.4H228.686V38.2H219.998V47.56H226.814V52.36H219.998V67H214.718V33.4ZM238.898 67.48C236.338 67.48 234.386 66.76 233.042 65.32C231.698 63.848 231.026 61.752 231.026 59.032V33.4H236.306V59.416C236.306 60.568 236.53 61.4 236.978 61.912C237.458 62.424 238.13 62.68 238.994 62.68C239.858 62.68 240.514 62.424 240.962 61.912C241.442 61.4 241.682 60.568 241.682 59.416V33.4H246.77V59.032C246.77 61.752 246.098 63.848 244.754 65.32C243.41 66.76 241.458 67.48 238.898 67.48ZM250.531 33.4H257.155L262.291 53.512H262.387V33.4H267.091V67H261.667L255.331 42.472H255.235V67H250.531V33.4ZM278.455 67.48C275.927 67.48 273.991 66.76 272.647 65.32C271.335 63.88 270.679 61.848 270.679 59.224V41.176C270.679 38.552 271.335 36.52 272.647 35.08C273.991 33.64 275.927 32.92 278.455 32.92C280.983 32.92 282.903 33.64 284.215 35.08C285.559 36.52 286.231 38.552 286.231 41.176V44.728H281.239V40.84C281.239 38.76 280.359 37.72 278.599 37.72C276.839 37.72 275.959 38.76 275.959 40.84V59.608C275.959 61.656 276.839 62.68 278.599 62.68C280.359 62.68 281.239 61.656 281.239 59.608V54.472H286.231V59.224C286.231 61.848 285.559 63.88 284.215 65.32C282.903 66.76 280.983 67.48 278.455 67.48ZM289.39 33.4H294.67V67H289.39V33.4ZM306.256 67.48C303.664 67.48 301.68 66.744 300.304 65.272C298.928 63.8 298.24 61.72 298.24 59.032V41.368C298.24 38.68 298.928 36.6 300.304 35.128C301.68 33.656 303.664 32.92 306.256 32.92C308.848 32.92 310.832 33.656 312.208 35.128C313.584 36.6 314.272 38.68 314.272 41.368V59.032C314.272 61.72 313.584 63.8 312.208 65.272C310.832 66.744 308.848 67.48 306.256 67.48ZM306.256 62.68C308.08 62.68 308.992 61.576 308.992 59.368V41.032C308.992 38.824 308.08 37.72 306.256 37.72C304.432 37.72 303.52 38.824 303.52 41.032V59.368C303.52 61.576 304.432 62.68 306.256 62.68ZM317.843 33.4H324.467L329.603 53.512H329.699V33.4H334.403V67H328.979L322.643 42.472H322.547V67H317.843V33.4ZM342.407 33.4H349.559L355.031 67H349.751L348.791 60.328V60.424H342.791L341.831 67H336.935L342.407 33.4ZM348.167 55.864L345.815 39.256H345.719L343.415 55.864H348.167ZM346.487 25.624H352.247L347.111 31.144H343.127L346.487 25.624ZM357.593 33.4H365.417C368.137 33.4 370.121 34.04 371.369 35.32C372.617 36.568 373.241 38.504 373.241 41.128V43.192C373.241 46.68 372.089 48.888 369.785 49.816V49.912C371.065 50.296 371.961 51.08 372.473 52.264C373.017 53.448 373.289 55.032 373.289 57.016V62.92C373.289 63.88 373.321 64.664 373.385 65.272C373.449 65.848 373.609 66.424 373.865 67H368.489C368.297 66.456 368.169 65.944 368.105 65.464C368.041 64.984 368.009 64.12 368.009 62.872V56.728C368.009 55.192 367.753 54.12 367.241 53.512C366.761 52.904 365.913 52.6 364.697 52.6H362.873V67H357.593V33.4ZM364.793 47.8C365.849 47.8 366.633 47.528 367.145 46.984C367.689 46.44 367.961 45.528 367.961 44.248V41.656C367.961 40.44 367.737 39.56 367.289 39.016C366.873 38.472 366.201 38.2 365.273 38.2H362.873V47.8H364.793ZM376.952 33.4H382.232V67H376.952V33.4ZM393.819 67.48C391.227 67.48 389.243 66.744 387.867 65.272C386.491 63.8 385.803 61.72 385.803 59.032V41.368C385.803 38.68 386.491 36.6 387.867 35.128C389.243 33.656 391.227 32.92 393.819 32.92C396.411 32.92 398.395 33.656 399.771 35.128C401.147 36.6 401.835 38.68 401.835 41.368V59.032C401.835 61.72 401.147 63.8 399.771 65.272C398.395 66.744 396.411 67.48 393.819 67.48ZM393.819 62.68C395.643 62.68 396.555 61.576 396.555 59.368V41.032C396.555 38.824 395.643 37.72 393.819 37.72C391.995 37.72 391.083 38.824 391.083 41.032V59.368C391.083 61.576 391.995 62.68 393.819 62.68Z" fill="#1B2845"/>
</svg>
