<svg width="107" height="107" viewBox="0 0 107 107" fill="none" xmlns="http://www.w3.org/2000/svg">
<g clip-path="url(#clip0)">
<path d="M21.6491 93.2267C28.1818 91.864 33.463 86.7742 35.1043 80.2563C36.2232 75.7979 35.6594 71.3176 33.5152 67.3904L44.8892 62.3599L91.0873 81.6105C92.4783 82.1896 93.9435 82.4813 95.4433 82.4813C99.2376 82.4813 102.76 80.5961 104.865 77.4395L106.624 74.8009C106.992 74.2523 107.096 73.5687 106.909 72.9418C106.726 72.3105 106.273 71.7924 105.67 71.5268L64.9165 53.5018L105.67 35.4762C106.273 35.2105 106.726 34.6925 106.909 34.0611C107.096 33.4298 106.992 32.7462 106.624 32.2021L104.865 29.5637C102.76 26.407 99.2376 24.5218 95.4433 24.5218C93.9435 24.5218 92.4785 24.8135 91.0873 25.3926L44.8853 44.6427L33.5132 39.6081C34.9282 37.0176 35.6661 34.1571 35.6661 31.2094C35.6661 21.3739 27.6661 13.3756 17.8331 13.3756C8.00017 13.3756 0.000167847 21.3737 0.000167847 31.2094C0.000167847 41.0449 8.00017 49.0432 17.8331 49.0432C24.4271 49.0432 29.2479 51.2011 32.5435 53.4987C29.3465 55.7322 24.769 57.8185 18.4688 57.9514C8.60746 58.1604 0.50737 65.5838 0.0242081 74.8446C0.00894928 75.1668 0.000167847 75.4847 0.000167847 75.7981C0.000167847 81.0273 2.24233 85.921 6.23699 89.3432C10.4751 92.9743 16.0938 94.3893 21.6491 93.2267ZM8.91654 31.2088C8.91654 26.2933 12.9154 22.2922 17.8331 22.2922C22.7509 22.2922 26.7497 26.2933 26.7497 31.2088C26.7497 36.1242 22.7509 40.1254 17.8331 40.1254C12.9154 40.1254 8.91654 36.1242 8.91654 31.2088ZM40.1243 53.4999C40.1243 51.04 42.1248 49.0417 44.5824 49.0417C47.0401 49.0417 49.0406 51.0402 49.0406 53.4999C49.0406 55.9598 47.0401 57.9581 44.5824 57.9581C42.1248 57.9581 40.1243 55.9598 40.1243 53.4999ZM8.91654 75.7912C8.91654 70.8758 12.9154 66.8747 17.8331 66.8747C22.7509 66.8747 26.7497 70.8758 26.7497 75.7912C26.7497 80.7067 22.7509 84.7078 17.8331 84.7078C12.9154 84.7078 8.91654 80.7067 8.91654 75.7912Z" fill="#FAEB67"/>
</g>
<defs>
<clipPath id="clip0">
<rect width="107" height="107" fill="white" transform="translate(107) rotate(90)"/>
</clipPath>
</defs>
</svg>
