<svg width="150" height="134" viewBox="0 0 150 134" fill="none" xmlns="http://www.w3.org/2000/svg">
<path d="M77.0115 121.16L59.5644 110.251C59.5644 110.251 58.8665 90.9269 65.1475 86.5635C71.4284 82.2 71.7774 67.2395 70.7305 61.6294C70.7305 61.6294 67.4677 53.3621 57.6167 54.9232C47.7658 56.4843 48.7191 66.4186 48.878 71.6696C49.0368 76.9205 41.7281 86.9967 36.6437 89.977C36.6437 89.977 38.2326 77.7297 31.0827 70.2292C23.9328 62.7287 20.2784 41.583 27.1105 29.5199C33.9426 17.4569 49.9902 5.39388 80.1786 6.81306C110.367 8.23224 120.695 21.8564 121.648 27.675C122.601 33.4936 115.928 39.0284 115.928 39.0284C115.928 39.0284 107.666 34.0613 100.516 34.3451C100.516 34.3451 101.469 46.2662 84.3096 52.7945L82.8796 69.3989L103.853 89.2674C103.853 89.2674 111.797 82.5972 115.928 82.5972C120.059 82.5972 124.349 86.1452 124.349 88.8416C124.349 91.5381 124.985 93.9507 121.33 97.2148C121.33 97.2148 120.218 93.5249 119.106 94.5183C117.994 95.5118 116.087 97.9244 117.994 102.608C119.9 107.291 121.33 116.09 116.405 124.037C111.479 131.985 93.8428 123.044 88.1229 121.341C82.403 119.638 77.0115 121.16 77.0115 121.16Z" fill="#F7F4F3"/>
<path d="M126.467 75.9954C126.362 75.381 126.166 74.818 125.941 74.2706C125.736 73.7118 125.466 73.189 125.224 72.6502C124.193 70.5311 122.968 68.513 121.73 66.5045C120.616 64.7296 119.449 62.9878 118.254 61.2541C119.277 60.9898 120.254 60.636 121.187 60.072C121.764 59.706 122.353 59.2185 122.642 58.5036C122.726 58.3309 122.759 58.1443 122.777 57.9535C122.815 57.7546 122.789 57.596 122.769 57.434C122.741 57.0941 122.673 56.8058 122.606 56.5185C122.344 55.3588 122.012 54.2465 121.682 53.1263C121.35 52.0087 120.995 50.8983 120.631 49.7912C119.911 47.5746 119.142 45.3728 118.357 43.1759C117.541 40.9869 116.758 38.79 115.882 36.6189C116.479 38.8641 117.142 41.0911 117.753 43.3308L119.665 50.0254C120.269 52.2562 120.956 54.4955 121.411 56.7152C121.525 57.2838 121.629 57.786 121.474 58.1339C121.324 58.5116 120.938 58.866 120.469 59.1537C119.523 59.7272 118.296 60.1018 117.135 60.3357L116.231 60.5177L116.719 61.2049C118.079 63.1218 119.397 65.0769 120.677 67.0417C121.965 69.0029 123.201 70.9933 124.315 73.0209C124.843 74.0348 125.38 75.0841 125.638 76.1113C125.769 76.588 125.72 77.1815 125.67 77.7113C125.609 78.2535 125.446 78.7754 125.2 79.2653C124.718 80.2574 123.791 81.0541 122.763 81.6998C121.73 82.3492 120.596 82.8837 119.45 83.3914C120.651 82.9962 121.841 82.5558 122.949 81.9534C124.051 81.3639 125.12 80.5937 125.762 79.5136C126.08 78.9813 126.292 78.3949 126.397 77.8048C126.486 77.2048 126.583 76.6464 126.467 75.9954Z" fill="#F9EABF"/>
<path opacity="0.25" d="M52.2369 19.596C45.5523 22.0918 39.2932 25.7389 34.7298 30.7652C30.1664 35.7916 27.4133 42.2815 27.9945 48.732C30.1176 43.9781 33.5029 39.6782 37.7934 36.2856C32.6198 45.424 32.2928 56.6389 36.9269 66.0055C35.602 58.5844 38.6429 50.6515 44.7822 45.5131C44.5587 52.9561 44.3352 60.3992 44.1117 67.8422C42.8022 62.7764 42.6267 57.3281 44.7702 52.4944C46.9137 47.6607 51.6705 43.5703 57.4252 42.7899C63.1799 42.0094 69.5849 45.1927 70.966 50.2432C72.9976 46.5239 75.0293 42.8045 77.0609 39.0852C77.266 42.0224 77.4711 44.9595 77.6763 47.8967C80.1411 41.0213 85.4792 35.0007 92.4072 31.2825C99.4017 27.5287 107.225 26.5721 115.219 27.3382C105.831 23.3153 97.543 18.3841 87.0226 16.5857C75.4261 14.6034 63.1587 15.5183 52.2369 19.596Z" fill="#467082"/>
<path opacity="0.25" d="M44.0148 31.6363C56.9139 23.52 73.4495 20.1615 89.0096 22.4975C81.6256 24.3542 75.6572 30.1196 74.1621 36.84C72.5298 35.3812 72.0985 32.9619 73.1429 31.1225C70.134 33.797 66.7447 36.1297 63.0824 38.0467C60.8265 36.4339 57.6321 36.2084 54.8293 36.8363C52.0266 37.4642 49.5173 38.8383 47.058 40.1933C46.5683 40.463 46.0786 40.7328 45.5889 41.0026C45.2408 41.1944 44.8926 41.3862 44.5445 41.578C42.8053 42.5361 41.0661 43.4943 39.3269 44.4524C40.3652 42.5095 41.4088 40.5584 42.757 38.7738C46.6903 33.5675 53.255 30.0156 60.2425 29.3131C53.0783 28.2497 45.386 30.6717 40.552 35.5127C41.4944 32.7155 43.8078 30.3107 46.762 29.0576" fill="#F9EABF"/>
<path opacity="0.25" d="M114.083 98.1139C114.606 103.31 115.128 108.505 115.651 113.701C115.802 115.202 115.947 116.75 115.434 118.186C114.921 119.621 113.574 120.93 111.891 121.029C109.754 121.156 108.137 119.448 106.599 118.117C100.426 112.777 89.821 112.197 82.9659 116.825C85.194 112.916 90.2551 110.455 95.1402 110.906C89.9187 108.275 82.9673 108.695 78.1897 111.929C79.6694 109.654 81.1491 107.379 82.6289 105.105C80.4074 106.968 78.1859 108.832 75.9644 110.696C76.7413 107.697 77.5182 104.699 78.2951 101.7C74.5626 102.886 71.5643 105.771 70.5179 109.184C68.3953 104.062 69.0985 98.0714 72.3646 93.4537C69.4053 96.2736 67.7419 100.148 67.8312 104.012C65.5074 101.525 65.5921 97.8331 66.7724 94.7706C67.9526 91.7081 70.0566 89.0014 71.5192 86.0376C74.276 80.4513 74.6555 74.176 74.5587 68.0717C76.3532 72.0747 78.1477 76.0777 79.9422 80.0808C79.9948 77.9692 80.0473 75.8576 80.0999 73.746C84.1422 80.5108 87.2499 87.7205 89.3302 95.1599C89.9986 92.1831 90.667 89.2063 91.3354 86.2295C92.88 88.5997 94.4246 90.9698 95.9692 93.34C96.4635 92.6207 96.9578 91.9013 97.4521 91.182C99.2579 93.8502 101.064 96.5185 102.87 99.1867C103.965 91.5234 112.503 85.3357 121.124 85.9564C122.012 86.3349 121.92 87.5812 121.229 88.2071C120.539 88.8331 119.523 89.0448 118.608 89.3666C113.531 91.1516 111.361 97.5324 114.469 101.538" fill="#467082"/>
<path d="M76.4844 98.4329C79.1332 96.696 81.2464 94.314 82.5341 91.6136C82.4838 94.2161 82.4334 96.8186 82.3831 99.4211C82.3747 99.8546 82.3855 100.335 82.7159 100.653C83.1506 101.071 83.899 100.998 84.5264 100.893C87.6245 100.373 90.7226 99.8534 93.8207 99.3337C93.2694 101.191 92.7181 103.049 92.1668 104.906C95.9417 102.718 101.322 103.056 104.717 105.695C107.181 107.611 108.492 110.419 109.721 113.123C108.296 108.261 107.794 103.184 108.243 98.1745C108.433 99.4661 107.586 100.825 106.257 101.362C104.901 101.91 103.267 101.605 102.001 100.908C100.734 100.212 99.7597 99.171 98.809 98.149C98.3519 99.3073 97.8948 100.466 97.4377 101.624C97.0763 99.7197 96.7149 97.8153 96.3535 95.9109C94.311 96.5866 92.2685 97.2622 90.2259 97.9378C88.6884 98.4464 86.8197 98.9155 85.533 98.0079C84.6507 97.3855 84.3708 96.3173 84.1467 95.3332C83.612 92.9853 83.0772 90.6374 82.5425 88.2895C81.6241 89.2303 80.7056 90.1711 79.7872 91.1119C79.4349 91.1119 77.9615 87.3681 77.6173 86.9626C76.8079 88.366 77.1157 90.9284 76.9809 92.5304C76.8154 94.4979 76.6499 96.4654 76.4844 98.4329Z" fill="#F9EABF"/>
</svg>
