<svg width="150" height="150" viewBox="0 0 150 150" fill="none" xmlns="http://www.w3.org/2000/svg">
<g clip-path="url(#clip0)">
<path d="M53.2106 34.3884H12.5989V146.849H53.2106V34.3884Z" fill="#CCECFA"/>
<path d="M137.556 34.3884H53.2109V146.849H137.556V34.3884Z" fill="#1594CF"/>
<path d="M57.6035 34.3884H48.8174V146.849H57.6035V34.3884Z" fill="#4BBAED"/>
<path d="M16.8884 34.3884H8.10229V146.849H16.8884V34.3884Z" fill="#4BBAED"/>
<path d="M137.555 34.3884H75.0254V146.849H137.555V34.3884Z" fill="#265D77"/>
<path d="M41.9819 95.1085H33.1958V107.604H41.9819V95.1085Z" fill="#265D77"/>
<path d="M133.162 34.389V79.102H114.758V87.8878H133.162V112.875H114.758V121.661H133.162V146.849H141.948V34.389H133.162Z" fill="#4BBAED"/>
<path d="M110.071 66.5071C101.62 66.5071 94.7446 73.3827 94.7446 81.8337V118.93C94.7446 127.381 101.62 134.256 110.071 134.256C118.522 134.256 125.398 127.381 125.398 118.93V81.8334C125.398 73.3821 118.522 66.5071 110.071 66.5071Z" fill="white"/>
<path d="M110.072 66.5071C110.072 72.8782 110.072 129.153 110.072 134.257C118.523 134.257 125.399 127.381 125.399 118.93V81.8334C125.399 73.3821 118.523 66.5071 110.072 66.5071Z" fill="#DFDEE0"/>
<path d="M125.398 96.0844L94.7446 113.937V118.93C94.7446 120.582 95.0106 122.173 95.4967 123.665L125.398 106.251V96.0844Z" fill="#4BBAED"/>
<path d="M110.24 104.913V115.079L125.398 106.251V96.0844L110.24 104.913Z" fill="#1594CF"/>
<path d="M125.399 81.8332C125.399 80.4267 125.204 79.0653 124.848 77.7706L94.7456 95.0759V105.21L125.399 87.5888V81.8332H125.399Z" fill="#FF4F19"/>
<path d="M124.848 77.7706L110.24 86.1682V96.3026L125.398 87.5882V81.8335C125.398 80.427 125.204 79.0658 124.848 77.7706Z" fill="#D43200"/>
<path d="M110.072 134.257C110.128 134.257 110.183 134.253 110.239 134.252V123.908L99.5986 130.105C102.341 132.677 106.024 134.257 110.072 134.257Z" fill="#FF4F19"/>
<path d="M110.24 134.252C118.613 134.161 125.398 127.325 125.398 118.93V115.08L110.24 123.908V134.252Z" fill="#D43200"/>
<path d="M110.239 66.5115C110.183 66.5109 110.128 66.5071 110.071 66.5071C101.62 66.5071 94.7446 73.3827 94.7446 81.8337V86.5264L111.507 76.8901L110.239 66.5115Z" fill="#4BBAED"/>
<path d="M110.24 66.5114V77.6195L121.204 71.316C118.445 68.396 114.554 66.5576 110.24 66.5114Z" fill="#1594CF"/>
<path d="M149.999 141.188H0.052002V149.974H149.999V141.188Z" fill="#DFDEE0"/>
<path d="M150 141.188H75.0264V149.974H150V141.188Z" fill="#BEBDC2"/>
<path d="M149.633 42.3321C149.834 41.7359 149.947 41.0996 149.947 40.4363V34.3895L131.204 0.0264893H18.7434L0 34.3895V40.4363C0 41.0996 0.113964 41.7356 0.31494 42.3321H149.633Z" fill="#DFDEE0"/>
<path d="M131.203 0.026123H75.0029V42.3317H149.633C149.834 41.7355 149.947 41.0992 149.947 40.4359V34.3891L131.203 0.026123Z" fill="#DFDEE0"/>
<path d="M112.46 39.8919L99.9649 0.026123H74.9736V42.4293L112.46 39.8919Z" fill="#D43200"/>
<path d="M37.4869 39.8926L49.9825 0.0268555H18.7434L0 34.3898V40.4367C0 41.1366 0.128027 41.8054 0.350682 42.43L37.4869 39.8926Z" fill="#FF4F19"/>
<path d="M37.4869 42.627C37.4869 52.979 29.0954 61.3704 18.7434 61.3704C8.39175 61.3704 0 52.9787 0 42.627V39.8918H37.4869V42.627Z" fill="#D43200"/>
<path d="M74.9732 42.627C74.9732 52.979 66.5818 61.3704 56.2298 61.3704C45.8781 61.3704 37.4863 52.979 37.4863 42.627V39.8918H74.9732V42.627Z" fill="#BEBDC2"/>
<path d="M112.461 42.627C112.461 52.979 104.069 61.3704 93.7171 61.3704C83.3654 61.3704 74.9736 52.979 74.9736 42.627V39.8918H112.461V42.627Z" fill="#9F2600"/>
<path d="M149.947 42.627C149.947 52.979 141.556 61.3704 131.204 61.3704C120.852 61.3704 112.46 52.979 112.46 42.627V39.8918H149.947V42.627Z" fill="#BEBDC2"/>
</g>
<defs>
<clipPath id="clip0">
<rect width="150" height="150" fill="white"/>
</clipPath>
</defs>
</svg>
